<svg width="28" height="16" viewBox="0 0 28 16" fill="none" xmlns="http://www.w3.org/2000/svg">
<path fill-rule="evenodd" clip-rule="evenodd" d="M0.892818 8.51816C3.12576 11.3 8.2692 16 13.9564 16C19.6816 16 24.8558 11.237 27.0644 8.46268C27.2754 8.19766 27.2513 7.82219 27.018 7.57667C24.1715 4.58214 19.5742 -0.00165422 13.9564 4.47856e-07C9.10162 0.00143298 5.00901 3.82517 2.14979 6.49655C1.7353 6.88381 1.34673 7.24685 0.985518 7.57052C0.711149 7.81638 0.662206 8.23086 0.892818 8.51816ZM13.9575 14.2202C17.6751 14.2202 20.6889 11.4344 20.6889 7.99796C20.6889 4.56152 17.6751 1.77574 13.9575 1.77574C10.2398 1.77574 7.22605 4.56152 7.22605 7.99796C7.22605 11.4344 10.2398 14.2202 13.9575 14.2202Z" fill="#1E273A"/>
<path fill-rule="evenodd" clip-rule="evenodd" d="M19.4505 8.42561C18.9609 8.7192 18.3947 8.88684 17.7915 8.88684C15.9327 8.88684 14.4258 7.29497 14.4258 5.33129C14.4258 4.68872 14.5871 4.08596 14.8694 3.56577C14.7231 3.55455 14.5751 3.54883 14.4255 3.54883C11.6373 3.54883 9.37695 5.53867 9.37695 7.99327C9.37695 10.4479 11.6373 12.4377 14.4255 12.4377C17.0481 12.4377 19.2036 10.6773 19.4505 8.42561Z" fill="#1E273A"/>
</svg>
