<svg width="31" height="29" viewBox="0 0 31 29" fill="none" xmlns="http://www.w3.org/2000/svg">
<path d="M14.1223 1.19911C14.6429 -0.00983377 16.3571 -0.00983147 16.8777 1.19911L19.8794 8.16937C20.0965 8.67363 20.5718 9.01896 21.1185 9.06967L28.6752 9.77053C29.9859 9.89209 30.5156 11.5223 29.5267 12.391L23.8251 17.3998C23.4127 17.7621 23.2311 18.3209 23.3518 18.8565L25.0204 26.2599C25.3098 27.544 23.9231 28.5515 22.7913 27.8794L16.2658 24.0047C15.7938 23.7244 15.2062 23.7244 14.7342 24.0047L8.20872 27.8794C7.07692 28.5515 5.69018 27.544 5.97958 26.2599L7.64817 18.8565C7.76888 18.3209 7.58733 17.7621 7.17485 17.3998L1.47332 12.391C0.484427 11.5223 1.01412 9.89209 2.32478 9.77053L9.88146 9.06967C10.4282 9.01896 10.9035 8.67363 11.1206 8.16937L14.1223 1.19911Z" fill="#F2F2F2" fill-opacity="0.57"/>
</svg>
